<svg width="403" height="415" viewBox="0 0 403 415" fill="none" xmlns="http://www.w3.org/2000/svg">
<rect width="403" height="415" fill="white"/>
<g filter="url(#filter0_i_54_12)">
<path fill-rule="evenodd" clip-rule="evenodd" d="M45 82C45 64.3268 59.3269 50 77 50H253.729C304.387 50 346.666 85.874 356.547 133.603C352.468 125.289 347.244 118.146 340.983 112.159C324.41 96.3103 301.074 89.0411 273.976 89.0411H138.875C119.929 89.0411 106.286 98.8975 97.7362 113.3C89.2679 127.567 85.7321 146.326 86.492 164.831C87.2524 183.349 92.3297 202.032 101.55 216.198C110.804 230.418 124.444 240.335 142.107 240.335H238.954L255.661 257.042L275.868 236.835L255.661 216.627L238.954 233.335H142.107C127.448 233.335 115.77 225.214 107.416 212.38C99.0282 199.491 94.2071 182.101 93.4861 164.544C92.7647 146.977 96.1645 129.662 103.756 116.873C111.266 104.221 122.805 96.0411 138.875 96.0411H273.976C299.885 96.0411 321.259 102.983 336.145 117.218C347.856 128.417 355.863 144.429 358.729 165.929V270.729C358.729 322.092 317.092 363.729 265.729 363.729H45V252.611C49.9884 268.594 56.8122 280.839 64.928 290.113C82.5565 310.256 105.721 315.761 127.454 315.761H258.893C277.892 315.761 291.594 305.541 300.201 290.702C308.735 275.989 312.37 256.636 311.68 237.528C310.99 218.411 305.956 199.12 296.697 184.491C287.403 169.81 273.626 159.549 255.661 159.549H177.037C175.399 150.912 167.811 144.382 158.698 144.382C148.389 144.382 140.031 152.739 140.031 163.049C140.031 173.358 148.389 181.715 158.698 181.715C167.811 181.715 175.399 175.185 177.037 166.549H255.661C270.555 166.549 282.366 174.939 290.782 188.235C299.231 201.583 304.028 219.595 304.685 237.781C305.342 255.977 301.84 273.926 294.146 287.19C286.525 300.329 274.908 308.761 258.893 308.761H127.454C106.883 308.761 86.0194 303.584 70.1957 285.503C58.3292 271.943 48.9891 250.783 45 218.241V82Z" fill="url(#paint0_radial_54_12)"/>
</g>
<g filter="url(#filter1_i_54_12)">
<path d="M158.898 178C166.906 178 173.398 171.508 173.398 163.5C173.398 155.492 166.906 149 158.898 149C150.89 149 144.398 155.492 144.398 163.5C144.398 171.508 150.89 178 158.898 178Z" fill="#A7F3F9"/>
</g>
<g filter="url(#filter2_i_54_12)">
<path d="M270.398 237L255.398 222L240.398 237L255.398 252L270.398 237Z" fill="#FFE135"/>
</g>
<defs>
<filter id="filter0_i_54_12" x="45" y="50" width="313.729" height="317.729" filterUnits="userSpaceOnUse" color-interpolation-filters="sRGB">
<feFlood flood-opacity="0" result="BackgroundImageFix"/>
<feBlend mode="normal" in="SourceGraphic" in2="BackgroundImageFix" result="shape"/>
<feColorMatrix in="SourceAlpha" type="matrix" values="0 0 0 0 0 0 0 0 0 0 0 0 0 0 0 0 0 0 127 0" result="hardAlpha"/>
<feOffset dy="4"/>
<feGaussianBlur stdDeviation="2"/>
<feComposite in2="hardAlpha" operator="arithmetic" k2="-1" k3="1"/>
<feColorMatrix type="matrix" values="0 0 0 0 0 0 0 0 0 0 0 0 0 0 0 0 0 0 0.25 0"/>
<feBlend mode="normal" in2="shape" result="effect1_innerShadow_54_12"/>
</filter>
<filter id="filter1_i_54_12" x="144.398" y="149" width="29" height="33" filterUnits="userSpaceOnUse" color-interpolation-filters="sRGB">
<feFlood flood-opacity="0" result="BackgroundImageFix"/>
<feBlend mode="normal" in="SourceGraphic" in2="BackgroundImageFix" result="shape"/>
<feColorMatrix in="SourceAlpha" type="matrix" values="0 0 0 0 0 0 0 0 0 0 0 0 0 0 0 0 0 0 127 0" result="hardAlpha"/>
<feOffset dy="4"/>
<feGaussianBlur stdDeviation="2"/>
<feComposite in2="hardAlpha" operator="arithmetic" k2="-1" k3="1"/>
<feColorMatrix type="matrix" values="0 0 0 0 0 0 0 0 0 0 0 0 0 0 0 0 0 0 0.25 0"/>
<feBlend mode="normal" in2="shape" result="effect1_innerShadow_54_12"/>
</filter>
<filter id="filter2_i_54_12" x="240.398" y="222" width="30" height="34" filterUnits="userSpaceOnUse" color-interpolation-filters="sRGB">
<feFlood flood-opacity="0" result="BackgroundImageFix"/>
<feBlend mode="normal" in="SourceGraphic" in2="BackgroundImageFix" result="shape"/>
<feColorMatrix in="SourceAlpha" type="matrix" values="0 0 0 0 0 0 0 0 0 0 0 0 0 0 0 0 0 0 127 0" result="hardAlpha"/>
<feOffset dy="4"/>
<feGaussianBlur stdDeviation="2"/>
<feComposite in2="hardAlpha" operator="arithmetic" k2="-1" k3="1"/>
<feColorMatrix type="matrix" values="0 0 0 0 0 0 0 0 0 0 0 0 0 0 0 0 0 0 0.25 0"/>
<feBlend mode="normal" in2="shape" result="effect1_innerShadow_54_12"/>
</filter>
<radialGradient id="paint0_radial_54_12" cx="0" cy="0" r="1" gradientUnits="userSpaceOnUse" gradientTransform="translate(160 167.5) rotate(-65.8099) scale(242.822 281.295)">
<stop offset="0.315" stop-color="#4E0001"/>
<stop offset="0.475" stop-color="#680002"/>
<stop offset="0.83" stop-color="#B40003" stop-opacity="0.54"/>
</radialGradient>
</defs>
</svg>
